HIERARCHY
ROOT pelvis
{
	OFFSET 0.00 0.00 0.00
	CHANNELS 6 Xposition Yposition Zposition Xrotation Yrotation Zrotation
	JOINT lfemur
	{
		OFFSET 0.00000 3.26371 0.00000
		CHANNELS 3 Xrotation Yrotation Zrotation
		JOINT ltibia
		{
			OFFSET 0.00000 0.00000 -17.39272
			CHANNELS 3 Xrotation Yrotation Zrotation
			JOINT lfoot
			{
				OFFSET 0.00000 0.00000 -17.72520
				CHANNELS 3 Xrotation Yrotation Zrotation
				JOINT ltoes
				{
					OFFSET 4.21806 0.00000 0.00000
					CHANNELS 3 Xrotation Yrotation Zrotation
				}
			}
		}
	}
	JOINT rfemur
	{
		OFFSET 0.00000 -3.26371 0.00000
		CHANNELS 3 Xrotation Yrotation Zrotation
		JOINT rtibia
		{
			OFFSET 0.00000 0.00000 -17.39272
			CHANNELS 3 Xrotation Yrotation Zrotation
			JOINT rfoot
			{
				OFFSET 0.00000 0.00000 -17.72520
				CHANNELS 3 Xrotation Yrotation Zrotation
				JOINT rtoes
				{
					OFFSET 4.21806 0.00000 0.00000
					CHANNELS 3 Xrotation Yrotation Zrotation
				}
			}
		}
	}
	JOINT thorax
	{
		OFFSET -1.96850 0.00000 6.16593
		CHANNELS 6 Xposition Yposition Zposition Xrotation Yrotation Zrotation
		JOINT head
		{
			OFFSET 0.00000 0.00000 18.21355
			CHANNELS 6 Xposition Yposition Zposition Xrotation Yrotation Zrotation
		}
		JOINT lclavicle
		{
			OFFSET 0.00000 0.00000 15.13875
			CHANNELS 3 Xrotation Yrotation Zrotation
			JOINT lhumerus
			{
				OFFSET 0.00000 7.18963 -1.52650
				CHANNELS 3 Xrotation Yrotation Zrotation
				JOINT lradius
				{
					OFFSET 0.00000 0.00000 -10.12096
					CHANNELS 3 Xrotation Yrotation Zrotation
					JOINT lhand
					{
						OFFSET 0.00000 0.00000 -10.45726
						CHANNELS 3 Xrotation Yrotation Zrotation
					}
				}
			}
		}
		JOINT rclavicle
		{
			OFFSET 0.00000 0.00000 15.13875
			CHANNELS 3 Xrotation Yrotation Zrotation
			JOINT rhumerus
			{
				OFFSET 0.00000 -7.18963 -1.52650
				CHANNELS 3 Xrotation Yrotation Zrotation
				JOINT rradius
				{
					OFFSET 0.00000 0.00000 -10.12096
					CHANNELS 3 Xrotation Yrotation Zrotation
					JOINT rhand
					{
						OFFSET 0.00000 0.00000 -10.45726
						CHANNELS 3 Xrotation Yrotation Zrotation
					}
				}
			}
		}
	}
}
MOTION
Frames: 13
Frame Time: 0.008333
 44.9553 -36.4532 31.3061 -7.0765 -3.9810 -70.3711 14.9614 22.0729 -18.2694 -0.0000 21.2277 -0.0000 0.0000 -5.2434 21.6427 0.0000 -47.3652 -0.0000 -26.5797 -33.0684 -26.5666 -0.0000 60.5780 0.0000 -0.0000 5.9085 14.5220 0.0000 -24.5717 0.0000 43.1575 -33.9894 36.8452 1.0657 9.8798 10.4332 44.0950 -34.2012 55.1761 -0.3548 3.6432 -33.0459 -12.9826 0.0000 -7.8301 36.5913 39.4138 -23.7613 180.0000 -75.6472 -148.6656 -25.1329 20.0877 -0.0000 3.1650 0.0000 21.9241 -96.6408 -40.3805 -55.2432 0.0000 -10.2065 42.6729 6.8983 -2.1583 0.0000
 44.9779 -36.4785 31.3066 -7.0199 -3.9631 -70.2882 14.8621 22.1461 -18.8151 -0.0000 21.0988 0.0000 -0.0000 -5.2009 22.2868 0.0000 -47.3673 -0.0000 -26.7422 -33.0134 -26.7763 -0.0000 60.6260 0.0000 0.0000 5.9074 14.6456 0.0000 -24.6692 -0.0000 43.1790 -34.0256 36.8473 1.0950 9.7405 10.2892 44.1405 -34.2083 55.1899 -0.0883 3.7003 -33.2278 -13.0025 0.0000 -7.9037 36.6325 39.5992 -23.6864 180.0000 -75.5987 -148.8533 -24.7630 20.0807 -0.0000 3.2896 0.0000 21.9326 -96.6603 -40.4852 -55.2119 0.0000 -10.1025 42.6604 7.1147 -2.6009 0.0000
 44.9826 -36.5035 31.3041 -7.0211 -3.9602 -70.3281 14.7914 22.1426 -18.7844 -0.0000 21.2311 0.0000 0.0000 -5.2674 22.4296 0.0000 -47.1709 -0.0000 -26.7128 -32.9908 -26.6912 -0.0000 60.6365 0.0000 -0.0000 5.8251 14.5808 0.0000 -24.6495 0.0000 43.1973 -34.0437 36.8498 1.0793 9.7460 10.2524 44.1409 -34.2308 55.1922 -0.0708 3.6597 -33.3117 -12.9768 0.0000 -7.9048 36.6593 39.6346 -23.6980 180.0000 -75.5465 -149.0913 -24.1890 19.8046 -0.0000 3.2983 0.0000 21.9024 -96.5848 -40.5525 -55.0999 -0.0000 -10.1460 42.5598 7.0054 -3.5306 0.0000
 44.9874 -36.5217 31.3052 -6.9240 -3.9163 -70.2837 14.6481 22.1886 -19.5545 -0.0000 21.1126 -0.0000 -0.0000 -5.4306 23.3347 0.0000 -46.5412 -0.0000 -26.7779 -33.0123 -26.7769 -0.0000 60.6262 0.0000 0.0000 5.7601 14.6424 0.0000 -24.5679 -0.0000 43.2364 -34.0820 36.8457 1.1545 9.5178 10.1390 44.1378 -34.2564 55.1876 -0.1516 3.7346 -33.4949 -12.9841 0.0000 -8.0123 36.6948 39.9404 -23.6548 180.0000 -75.4392 -149.3535 -23.7234 19.5663 0.0000 3.2546 0.0000 21.9490 -96.3910 -40.5328 -54.8123 0.0000 -10.1562 42.2996 7.2365 -2.5960 0.0000
 44.9297 -36.5139 31.2724 -6.8800 -3.8904 -70.2755 14.7413 21.7307 -18.8271 -0.0000 21.7783 0.0000 -0.0000 -5.6541 22.7668 0.0000 -46.6323 -0.0000 -26.7778 -33.2453 -26.7861 -0.0000 60.8936 0.0000 0.0000 5.6715 14.5457 0.0000 -24.5269 -0.0000 43.2591 -34.0989 36.8487 1.1820 9.4701 10.0632 44.1353 -34.2738 55.1887 -0.2438 3.7141 -33.6336 -12.9724 0.0000 -7.9441 36.7518 39.8675 -23.7295 180.0000 -75.4183 -149.6105 -23.1719 19.3167 -0.0000 3.3719 -0.0000 21.8621 -96.6294 -40.7407 -54.8260 0.0000 -9.9203 42.1171 7.4156 -3.0862 0.0000
 44.9577 -36.5338 31.2786 -6.8230 -3.8552 -70.1363 14.6099 21.7377 -19.5527 -0.0000 21.7484 -0.0000 -0.0000 -5.6005 23.5370 0.0000 -46.6849 -0.0000 -26.9383 -33.1430 -27.0135 -0.0000 60.8574 0.0000 -0.0000 5.6824 14.6250 0.0000 -24.5812 -0.0000 43.2661 -34.1069 36.8446 1.1636 9.4335 9.8842 44.1755 -34.2812 55.1840 -0.0126 3.5013 -33.8168 -12.9555 0.0000 -8.0527 36.7798 39.9574 -23.6603 180.0000 -75.2460 -149.7101 -22.6411 19.3985 0.0000 3.3096 0.0000 21.8925 -96.4935 -40.6595 -54.7441 -0.0000 -10.0362 41.8280 7.4887 -2.9634 0.0000
 45.0228 -36.5789 31.2863 -6.7857 -3.8202 -70.2036 14.3681 21.9729 -20.1613 -0.0000 21.6071 0.0000 -0.0000 -5.7859 24.3484 0.0000 -46.0884 -0.0000 -27.0967 -33.0453 -27.1993 -0.0000 60.8310 0.0000 0.0000 5.6682 14.8525 0.0000 -24.5393 -0.0000 43.3009 -34.1149 36.8416 1.2227 9.3797 9.8869 44.2199 -34.2908 55.1792 0.0339 3.3532 -34.0775 -12.9530 0.0000 -8.0407 36.8477 39.9444 -23.8614 180.0000 -75.2010 -149.7295 -22.0965 18.9029 0.0000 3.4004 0.0000 21.9743 -96.7243 -40.6135 -54.9649 -0.0000 -9.7725 41.9658 7.5347 -2.6594 0.0000
 45.0331 -36.5957 31.2801 -6.7866 -3.8141 -70.2587 14.2595 21.9386 -20.1574 -0.0000 21.8168 0.0000 0.0000 -5.9309 24.5395 -0.0000 -45.7214 -0.0000 -27.0609 -33.0504 -27.1030 -0.0000 60.8310 0.0000 -0.0000 5.8114 14.9121 0.0000 -25.0247 -0.0000 43.3282 -34.1291 36.8378 1.2193 9.3584 9.8881 44.2589 -34.2933 55.1739 0.1643 3.2777 -34.3190 -12.9353 0.0000 -8.0404 36.8920 39.9478 -23.9520 180.0000 -75.1430 -149.7600 -21.4654 18.7606 -0.0000 3.3990 0.0000 21.9569 -96.6997 -40.6219 -54.9320 -0.0000 -9.7450 41.8488 7.5075 -2.6128 0.0000
 45.0472 -36.6045 31.2719 -6.7829 -3.8037 -70.2940 14.1242 21.8815 -20.3149 -0.0000 22.0691 0.0000 -0.0000 -6.1445 24.8253 0.0000 -45.4521 -0.0000 -27.1071 -33.0690 -27.0953 -0.0000 60.8796 0.0000 -0.0000 5.7261 14.9051 0.0000 -24.9272 0.0000 43.3541 -34.1398 36.8319 1.2233 9.3409 9.9120 44.2721 -34.3247 55.1506 -0.0505 3.0949 -34.6532 -12.9298 0.0000 -8.0298 36.9935 39.8769 -24.2473 180.0000 -75.1091 -149.3881 -20.7857 18.7511 0.0000 3.3842 0.0000 21.9117 -96.6630 -40.5837 -54.9213 0.0000 -9.7857 41.8931 7.7540 -2.6801 -0.0000
 45.0004 -36.5744 31.2431 -6.7101 -3.7535 -70.1306 14.1995 21.3035 -20.0405 -0.0000 22.8333 0.0000 0.0000 -6.4764 24.4658 0.0000 -45.2866 -0.0000 -27.1151 -33.2331 -27.1195 -0.0000 61.0092 0.0000 0.0000 5.5765 14.7351 0.0000 -24.7373 -0.0000 43.3974 -34.1597 36.8194 1.3080 9.1789 9.7314 44.3224 -34.3206 55.1497 0.0735 3.1143 -34.9267 -12.9059 0.0000 -7.9515 37.0584 39.7743 -24.5186 180.0000 -75.1440 -149.0750 -20.2733 18.8074 -0.0000 3.3563 0.0000 21.8079 -96.6467 -40.6652 -54.8531 -0.0000 -9.6970 41.7183 7.7842 -2.5097 0.0000
 44.9406 -36.5574 31.1906 -5.6662 -2.7130 -70.5260 14.6384 19.8473 -18.8595 -0.0000 23.4174 0.0000 0.0000 -6.7489 24.1274 -0.0000 -45.8919 -0.0000 -26.3939 -34.8743 -27.0500 -0.0000 61.0752 0.0000 -0.0000 6.0176 14.6123 0.0000 -25.6819 0.0000 43.4114 -34.1410 36.8155 1.8171 7.9653 10.2089 44.3729 -34.3183 55.1402 0.2296 2.8595 -35.1988 -12.9958 0.0000 -7.9948 37.2206 39.6813 -24.6267 180.0000 -75.1250 -148.8585 -19.7389 18.4234 -0.0000 3.2095 0.0000 21.7490 -96.5846 -40.6632 -55.3206 0.0000 -9.7515 41.8867 7.7365 -2.7153 -0.0000
 44.9628 -36.5535 31.1813 -5.6741 -2.7087 -70.5900 14.4614 19.7305 -18.9376 -0.0000 23.8207 0.0000 0.0000 -7.0426 24.3406 -0.0000 -45.4336 -0.0000 -26.4317 -34.9034 -26.9633 -0.0000 61.1187 0.0000 0.0000 5.8024 14.4678 -0.0000 -25.2539 -0.0000 43.4451 -34.1411 36.8056 1.8135 7.9589 10.1786 44.4160 -34.3177 55.1262 0.2437 2.7658 -35.4164 -12.9996 0.0000 -7.9781 37.1849 39.6887 -24.6448 180.0000 -75.2121 -148.9185 -19.6843 18.4281 -0.0000 3.2349 0.0000 21.7992 -96.5884 -40.5803 -55.3403 0.0000 -9.7990 41.6547 7.9330 -2.9189 0.0000
 44.9836 -36.5452 31.1701 -5.6821 -2.7034 -70.6465 14.2680 19.5737 -19.0699 -0.0000 24.2924 0.0000 0.0000 -7.1994 24.6177 0.0000 -45.4162 -0.0000 -26.4674 -34.9442 -26.9205 -0.0000 61.1405 0.0000 -0.0000 5.8662 14.6409 0.0000 -25.3516 -0.0000 43.4745 -34.1333 36.7943 1.7811 7.9765 10.1466 44.4636 -34.3049 55.1164 0.3239 2.6775 -35.6218 -12.9823 0.0000 -7.9948 37.1210 39.7501 -24.4977 -180.0000 -75.2755 -149.2577 -19.8128 18.3830 0.0000 3.2510 0.0000 21.7665 -96.5810 -40.6535 -55.2607 0.0000 -9.7924 41.0871 7.6881 -3.8617 0.0000
